# xmcd
#
# Track frame offsets:
#	183
#	62993
#	80868
#	99710
#	122905
#	145413
#	165838
#	187010
#	210130
#	230305
#	249740
#	269595
#
# Disc length: 3883 seconds
#
# Revision: 0
# Processed by: cddbd v1.5.2PL0 Copyright (c) Steve Scherf et al.
# Submitted via: EasyCDDAExtractor 15.3.0.1
#
DISCID=af0f290c
DTITLE=Varios Artistas - Merengue Mix
DYEAR=1993
DGENRE=Latin
TTITLE0=Merengue Mix - Megamix Version
TTITLE1=Pochy Y Su Cocoband - La Sexy
TTITLE2=Johnny Ventura - Pitaste
TTITLE3=Jossie Esteban Y La Patrulla 15 - El Meneito
TTITLE4=Rokabanda - El Tamarindo
TTITLE5=Merengue Mix - Radio Edit
TTITLE6=Olga Tañon - Vendras Llorando
TTITLE7=Caña Brava - Eres Mentirosa
TTITLE8=Zona Roja - Con Tanto Cache
TTITLE9=Sergio Vargas - La Pastilla
TTITLE10=Tierra Seca - Aventura
TTITLE11=Eddy Herrera - Carolina
EXTD=
EXTT0=
EXTT1=Pochy Su Cocoband\n
EXTT2=Johnny Ventura\n
EXTT3=Jossie Esteban\n
EXTT4=Rokabanda\n
EXTT5=
EXTT6=Olga Tanon\n
EXTT7=Cana Brava\n
EXTT8=Zona Roja\n
EXTT9=Sergio Vargas\n
EXTT10=Tierra Seca\n
EXTT11=Eddy Herrera\n
PLAYORDER=
